<svg xmlns="http://www.w3.org/2000/svg" xmlns:xlink="http://www.w3.org/1999/xlink" width="495.0146" height="589.675" viewBox="0 0 495.0146 589.675"><defs><style>.a{fill:none;}.b{fill:#1e284b;}.c{fill:#fdc935;}.d{clip-path:url(#a);}.e{fill:#fcc934;}.f{fill:#fff;}.g{fill:#a19687;}</style><clipPath id="a" transform="translate(-106.9929 -59.1625)"><rect class="a" width="708.661" height="708.661"/></clipPath></defs><title>Asset 5</title><path class="b" d="M300.5532,605.5546S195.3617,511.8525,177.2158,460.5334c-17.9116-50.6564-58.45-177.7022-58.45-198.1277V143.9376s133.2565-15.3191,235.65-72.5106c112.6058,79.66,240.2654,69.4468,240.2654,69.4468S610,487.0865,377.1489,629.044c-42.8936,21.4468-20.3219,12.2553-20.3219,12.2553Z" transform="translate(-106.9929 -59.1625)"/><polygon class="c" points="70.223 116.915 79.115 134.932 98.997 137.821 84.61 151.845 88.006 171.647 70.223 162.298 52.439 171.647 55.836 151.845 41.448 137.821 61.331 134.932 70.223 116.915"/><polygon class="c" points="424.79 116.915 433.682 134.932 453.564 137.821 439.178 151.845 442.574 171.647 424.79 162.298 407.007 171.647 410.403 151.845 396.016 137.821 415.898 134.932 424.79 116.915"/><g class="d"><path class="e" d="M354.5,648.8375l-3.458-1.705c-62.074-30.609-113.503-76.342-152.858-135.931-31.362-47.485-55.137-103.797-70.665-167.373-26.368-107.956-19.914-198.205-19.626-201.9929l.541-7.1311,7.151-.0959c62.844-.838,123.229-20.534,162.821-36.91,43.122-17.836,71.637-35.723,71.92-35.901l4.175-2.635,4.176,2.6361c.28.1769,28.796,18.0639,71.918,35.9,39.591,16.3761,99.977,36.0721,162.82,36.91l7.152.0959.541,7.1311c.288,3.789,6.742,94.0369-19.626,201.9929-15.529,63.576-39.304,119.888-70.665,167.373-39.357,59.589-90.784,105.322-152.859,135.931Zm-231.381-498.771c-.946,23.362-2.035,101.776,19.695,190.48,15.126,61.742,38.19,116.329,68.555,162.245,37.053,56.028,85.197,99.275,143.131,128.588,57.934-29.313,106.078-72.56,143.131-128.588,30.364-45.916,53.43-100.503,68.555-162.245,21.73-88.704,20.641-167.1169,19.695-190.48-62.762-2.214-122.173-21.724-161.575-38.047A562.1223,562.1223,0,0,1,354.5,77.5585a562.1616,562.1616,0,0,1-69.807,34.461c-39.4,16.323-98.811,35.833-161.574,38.047" transform="translate(-106.9929 -59.1625)"/><path class="f" d="M296.3647,161.2383h25.379v84.41h-16.435v-57.094q0-2.4615.057-6.901.0555-4.437.057-6.843l-15.996,70.838h-17.142l-15.881-70.838q0,2.4045.057,6.843t.057,6.901v57.094h-16.435v-84.41h25.666l15.365,66.371Z" transform="translate(-106.9929 -59.1625)"/><polygon class="f" points="231.072 102.076 248.71 102.076 248.71 171.31 290.857 171.31 290.857 186.486 231.072 186.486 231.072 102.076"/><polygon class="f" points="296.755 171.596 339.899 117.022 297.843 117.022 297.843 102.075 361.809 102.075 361.809 116.22 318.107 171.596 361.924 171.596 361.924 186.485 296.755 186.485 296.755 171.596"/><path class="f" d="M217.1377,477.2007a8.5581,8.5581,0,0,0,1.608,4.323q2.1915,2.607,7.513,2.606a16.1638,16.1638,0,0,0,5.174-.688q3.7725-1.3155,3.772-4.895a3.6081,3.6081,0,0,0-1.847-3.237,20.0782,20.0782,0,0,0-5.86-1.975l-4.569-1.002q-6.7365-1.488-9.256-3.236-4.266-2.9205-4.266-9.133a12.131,12.131,0,0,1,4.173-9.42q4.176-3.7515,12.262-3.751a18.8011,18.8011,0,0,1,11.521,3.536q4.7685,3.5355,5,10.265h-8.475a6.0472,6.0472,0,0,0-3.405-5.413,11.6805,11.6805,0,0,0-5.255-1.058,10.0028,10.0028,0,0,0-5.577,1.374,4.3492,4.3492,0,0,0-2.084,3.837,3.6222,3.6222,0,0,0,2.055,3.379,25.5464,25.5464,0,0,0,5.607,1.746l7.407,1.747a18.8586,18.8586,0,0,1,7.299,3.063q3.774,2.979,3.774,8.619a12.1113,12.1113,0,0,1-4.471,9.606q-4.4715,3.8235-12.633,3.822-8.3355,0-13.11-3.764a12.4566,12.4566,0,0,1-4.775-10.351Z" transform="translate(-106.9929 -59.1625)"/><polygon class="f" points="174.11 396.334 151.777 396.334 151.777 405.296 172.278 405.296 172.278 412.626 151.777 412.626 151.777 423.478 175.141 423.478 175.141 431.065 143.158 431.065 143.158 388.86 174.11 388.86 174.11 396.334"/><path class="f" d="M293.0376,452.4332a17.3688,17.3688,0,0,1,12.973-5.212q10.539,0,15.411,6.987a15.2342,15.2342,0,0,1,2.888,7.874h-8.818a12.0273,12.0273,0,0,0-2.16-4.582q-2.3565-2.748-6.984-2.748a8.6064,8.6064,0,0,0-7.435,3.88q-2.7195,3.88-2.72,10.981t2.871,10.636a8.9936,8.9936,0,0,0,7.296,3.537,8.2638,8.2638,0,0,0,6.918-3.036,13.3077,13.3077,0,0,0,2.185-4.895h8.762a19.0179,19.0179,0,0,1-5.792,11.223,16.86,16.86,0,0,1-11.94,4.324q-9.009,0-14.164-5.841-5.1555-5.87-5.155-16.092,0-11.052,5.864-17.036" transform="translate(-106.9929 -59.1625)"/><path class="f" d="M331.354,448.023h8.962v25.921a14.6829,14.6829,0,0,0,1.027,6.351q1.5975,3.549,6.962,3.548,5.3355,0,6.932-3.548a14.6652,14.6652,0,0,0,1.028-6.351V448.023h8.962v25.941q0,6.7305-2.086,10.481-3.89,6.8715-14.836,6.871-10.9485,0-14.865-6.871-2.0865-3.7515-2.086-10.481Z" transform="translate(-106.9929 -59.1625)"/><path class="f" d="M400.7485,449.1121a10.4145,10.4145,0,0,1,3.951,2.949,13.161,13.161,0,0,1,2.122,3.55,11.8391,11.8391,0,0,1,.782,4.438,12.6353,12.6353,0,0,1-1.518,5.912,8.4809,8.4809,0,0,1-5.01,4.11,7.874,7.874,0,0,1,4.136,3.336q1.218,2.1615,1.218,6.599v2.835a21.2422,21.2422,0,0,0,.233,3.922,3.5173,3.5173,0,0,0,1.628,2.405v1.06h-9.735q-.4005-1.4025-.573-2.262a20.7686,20.7686,0,0,1-.372-3.636l-.058-3.923q-.054-4.038-1.395-5.383t-5.024-1.346h-8.613v16.55h-8.618v-42.205H394.09a18.3858,18.3858,0,0,1,6.659,1.089m-18.228,6.241v11.339h9.491a10.0814,10.0814,0,0,0,4.242-.688q2.502-1.2015,2.502-4.753,0-3.8355-2.421-5.153a8.7309,8.7309,0,0,0-4.079-.745Z" transform="translate(-106.9929 -59.1625)"/><rect class="f" x="308.3411" y="388.8605" width="8.762" height="42.205"/><polygon class="f" points="356.015 388.86 356.015 396.334 343.388 396.334 343.388 431.065 334.512 431.065 334.512 396.334 321.827 396.334 321.827 388.86 356.015 388.86"/><polygon class="f" points="385.249 388.86 395.241 388.86 381.126 415.24 381.126 431.065 372.307 431.065 372.307 415.24 357.704 388.86 368.098 388.86 376.859 407.243 385.249 388.86"/><path class="f" d="M239.7373,516.3873a6.7048,6.7048,0,0,0,.589,2.942,5.2893,5.2893,0,0,0,1.639,1.996,6.953,6.953,0,0,0,2.417,1.135,11.6274,11.6274,0,0,0,2.962.358,9.4871,9.4871,0,0,0,2.941-.4,5.9226,5.9226,0,0,0,1.976-1.03,3.718,3.718,0,0,0,1.092-1.449,4.3468,4.3468,0,0,0,.337-1.66,3.59,3.59,0,0,0-.778-2.543,4.4557,4.4557,0,0,0-1.702-1.156,36.1692,36.1692,0,0,0-3.719-1.114q-2.124-.525-5.233-1.365a11.1779,11.1779,0,0,1-3.214-1.324,7.6415,7.6415,0,0,1-2.038-1.828,6.4182,6.4182,0,0,1-1.072-2.144,8.5934,8.5934,0,0,1-.315-2.311,7.801,7.801,0,0,1,.946-3.929,8.4035,8.4035,0,0,1,2.5-2.753,10.9969,10.9969,0,0,1,3.529-1.618,15.4906,15.4906,0,0,1,3.993-.526,15.7108,15.7108,0,0,1,4.434.61,10.9315,10.9315,0,0,1,3.656,1.829,8.6776,8.6776,0,0,1,3.425,7.143h-5.253a5.0619,5.0619,0,0,0-1.975-4.096,7.8407,7.8407,0,0,0-4.497-1.199,9.8255,9.8255,0,0,0-1.89.19,6.0136,6.0136,0,0,0-1.767.63,3.864,3.864,0,0,0-1.323,1.198,3.663,3.663,0,0,0,.463,4.392,6.3939,6.3939,0,0,0,2.585,1.366q.1665.0405,1.323.356,1.155.315,2.585.694,1.4265.378,2.794.735,1.365.357,1.954.525a8.8026,8.8026,0,0,1,2.564,1.261,8.1274,8.1274,0,0,1,1.828,1.828,7.5737,7.5737,0,0,1,1.092,2.206,8.0865,8.0865,0,0,1,.358,2.355,8.4878,8.4878,0,0,1-1.03,4.306,8.7345,8.7345,0,0,1-2.71,2.921,11.76,11.76,0,0,1-3.825,1.66,18.2547,18.2547,0,0,1-4.37.526,17.9568,17.9568,0,0,1-4.833-.631,11.3044,11.3044,0,0,1-3.951-1.933,9.4433,9.4433,0,0,1-2.689-3.341,11.0978,11.0978,0,0,1-1.051-4.812Z" transform="translate(-106.9929 -59.1625)"/><polygon class="f" points="161.952 437.221 183.554 437.221 183.554 441.76 167.205 441.76 167.205 449.618 182.335 449.618 182.335 453.906 167.205 453.906 167.205 462.689 183.848 462.689 183.848 467.227 161.952 467.227 161.952 437.221"/><path class="f" d="M300.8417,496.3836h14.331q4.959,0,7.439,2.143a7.4679,7.4679,0,0,1,2.479,5.968,8.7,8.7,0,0,1-.631,3.551,7.74,7.74,0,0,1-1.47,2.269,5.7264,5.7264,0,0,1-1.66,1.24q-.819.3795-1.198.505v.084a5.3948,5.3948,0,0,1,1.45.419,4.3092,4.3092,0,0,1,1.45,1.073,5.8435,5.8435,0,0,1,1.113,1.911,8.4607,8.4607,0,0,1,.442,2.942,26.5416,26.5416,0,0,0,.399,4.812,6.3176,6.3176,0,0,0,1.24,3.089h-5.632a4.8906,4.8906,0,0,1-.693-2.143q-.1065-1.176-.105-2.269a21.6371,21.6371,0,0,0-.252-3.551,6.2085,6.2085,0,0,0-.925-2.481,3.92,3.92,0,0,0-1.828-1.449,8.0713,8.0713,0,0,0-2.963-.463h-7.733V526.39h-5.253Zm5.253,13.658h8.616a5.4681,5.4681,0,0,0,3.824-1.197,4.649,4.649,0,0,0,1.303-3.594,5.5629,5.5629,0,0,0-.42-2.332,3.4081,3.4081,0,0,0-1.156-1.408,4.242,4.242,0,0,0-1.682-.672,11.1393,11.1393,0,0,0-1.953-.168h-8.532Z" transform="translate(-106.9929 -59.1625)"/><polygon class="f" points="224.696 437.221 230.159 437.221 237.682 460.965 237.766 460.965 245.457 437.221 250.794 437.221 240.539 467.227 234.697 467.227 224.696 437.221"/><rect class="f" x="259.1981" y="437.2205" width="5.253" height="30.006"/><path class="f" d="M403.5527,505.9234a10.6863,10.6863,0,0,0-.925-2.396,6.6441,6.6441,0,0,0-1.513-1.891,6.7356,6.7356,0,0,0-2.165-1.239,8.5681,8.5681,0,0,0-2.877-.442,8.4014,8.4014,0,0,0-4.14.967,8.1216,8.1216,0,0,0-2.837,2.584,11.6117,11.6117,0,0,0-1.617,3.678,17.02,17.02,0,0,0,0,8.405,11.5863,11.5863,0,0,0,1.617,3.677,8.1149,8.1149,0,0,0,2.837,2.585,8.4123,8.4123,0,0,0,4.14.967,7.478,7.478,0,0,0,3.11-.61,6.9318,6.9318,0,0,0,2.31-1.681,7.9124,7.9124,0,0,0,1.513-2.5,11.9889,11.9889,0,0,0,.715-3.069h5.127a14.2472,14.2472,0,0,1-1.155,4.917,12.0781,12.0781,0,0,1-2.669,3.846,11.7792,11.7792,0,0,1-3.95,2.5,13.6791,13.6791,0,0,1-5.001.883,14.1362,14.1362,0,0,1-6.031-1.241,13.2492,13.2492,0,0,1-4.518-3.382,15.0986,15.0986,0,0,1-2.837-5.001,19.1584,19.1584,0,0,1,0-12.146,15.1186,15.1186,0,0,1,2.837-5.001,13.4858,13.4858,0,0,1,4.518-3.403,13.9357,13.9357,0,0,1,6.031-1.262,15.9419,15.9419,0,0,1,4.749.693,12.32,12.32,0,0,1,3.928,2.018,10.4707,10.4707,0,0,1,2.753,3.215,11.2157,11.2157,0,0,1,1.303,4.329Z" transform="translate(-106.9929 -59.1625)"/><polygon class="f" points="312.066 437.221 333.668 437.221 333.668 441.76 317.319 441.76 317.319 449.618 332.449 449.618 332.449 453.906 317.319 453.906 317.319 462.689 333.962 462.689 333.962 467.227 312.066 467.227 312.066 437.221"/><path class="f" d="M454.4014,516.3873a6.7048,6.7048,0,0,0,.589,2.942,5.2893,5.2893,0,0,0,1.639,1.996,6.9615,6.9615,0,0,0,2.417,1.135,11.6274,11.6274,0,0,0,2.962.358,9.4982,9.4982,0,0,0,2.942-.4,5.9171,5.9171,0,0,0,1.975-1.03,3.718,3.718,0,0,0,1.092-1.449,4.328,4.328,0,0,0,.337-1.66,3.59,3.59,0,0,0-.778-2.543,4.46,4.46,0,0,0-1.701-1.156,36.1933,36.1933,0,0,0-3.72-1.114q-2.1225-.525-5.233-1.365a11.1709,11.1709,0,0,1-3.213-1.324,7.6313,7.6313,0,0,1-2.039-1.828,6.4182,6.4182,0,0,1-1.072-2.144,8.5934,8.5934,0,0,1-.315-2.311,7.801,7.801,0,0,1,.946-3.929,8.4035,8.4035,0,0,1,2.5-2.753,10.9969,10.9969,0,0,1,3.529-1.618,15.4981,15.4981,0,0,1,3.994-.526,15.7088,15.7088,0,0,1,4.433.61,10.9315,10.9315,0,0,1,3.656,1.829,8.6776,8.6776,0,0,1,3.425,7.143h-5.253a5.0641,5.0641,0,0,0-1.974-4.096,7.8429,7.8429,0,0,0-4.497-1.199,9.8277,9.8277,0,0,0-1.891.19,6.0239,6.0239,0,0,0-1.767.63,3.8731,3.8731,0,0,0-1.323,1.198,3.663,3.663,0,0,0,.463,4.392,6.4005,6.4005,0,0,0,2.585,1.366q.1665.0405,1.323.356t2.585.694q1.4265.378,2.794.735,1.365.357,1.954.525a8.79,8.79,0,0,1,2.564,1.261,8.153,8.153,0,0,1,1.829,1.828,7.6239,7.6239,0,0,1,1.092,2.206,8.1188,8.1188,0,0,1,.357,2.355,8.4978,8.4978,0,0,1-1.029,4.306,8.7475,8.7475,0,0,1-2.711,2.921,11.7551,11.7551,0,0,1-3.824,1.66,18.2629,18.2629,0,0,1-4.371.526,17.9568,17.9568,0,0,1-4.833-.631,11.3044,11.3044,0,0,1-3.951-1.933,9.4433,9.4433,0,0,1-2.689-3.341,11.0978,11.0978,0,0,1-1.051-4.812Z" transform="translate(-106.9929 -59.1625)"/><polygon class="g" points="151.213 351.145 158.31 351.145 158.31 335.483 162.226 335.483 162.226 331.323 172.504 331.323 172.504 349.432 189.145 349.432 189.145 358.242 202.359 358.242 202.359 367.296 220.958 367.296 220.958 336.952 226.342 335.483 230.991 335.483 230.991 346.25 252.282 352.858 252.282 338.91 261.337 338.91 261.337 322.513 274.062 322.513 274.062 318.353 275.958 320.555 275.958 322.452 283.116 322.452 283.116 344.62 295.923 344.62 304.081 344.62 304.081 342.009 307.833 342.009 314.359 342.009 314.359 333.363 318.111 333.363 318.111 330.425 323.006 330.425 323.006 362.892 340.299 362.892 340.299 349.351 350.088 349.351 350.088 356.855 350.088 370.233 319.579 373.006 143.546 373.006 151.213 351.145"/><path class="e" d="M242.0454,332.9928l9.41-4.5s-.273,2.591,1.636,2.25,3.955-2.66,10.774-3.069c0,0,1.5-.568.818-3.136a9.5082,9.5082,0,0,0,9.955-6.819l.546-5.318s-5.66,2.707-16.57,10.296c0,0-13.296-7.433-19.842-13.569,0,0-.272,10.364,13.229,16.228a23.6245,23.6245,0,0,1-12.274,1.364" transform="translate(-106.9929 -59.1625)"/><path class="e" d="M203.4067,318.5826s2.273-1.273,5.091,1.091c0,0,2.728-4,11.365-4.728h1.909s1-3.454-4.182-4.909c0,0,4.909-5.727,6.546-5.818,0,0-3.455-2.001-9.001,0s-7.182,6-7.182,6-12.183-4.728-19.001-1.091c0,0-1.818,4.182,14.546,5.546,0,0,1.909-.364-.091,3.909" transform="translate(-106.9929 -59.1625)"/><path class="e" d="M247.3188,306.3092s3.545-.091,4.818-2.091c0,0,5.364,1.455,9.001,0a25.0974,25.0974,0,0,0,6.364-3.819s-4-.181-4.182-1.909-4.364-3.636-4.364-3.636-3.819-5.819-4.182-8.364-2.091-4.182-3.273-4.001-2.546,3.001-2.182,9.001,3.273,8.637,3.273,8.637-5.273-.091-7.637,1.364.01,5.237,2.364,4.818" transform="translate(-106.9929 -59.1625)"/><path class="e" d="M294.0034,290.8536s5.046-.663,7.228,3.555c0,0,9.273-.964,13.091,2.036l1.637-1.091h1.909l4.636,1.091s1.364,2.728,2.865,1.909c0,0,.136-7.03-3.682-7.538,0,0,16.364-2.417,18.001-3.78s-2.591-5.71-11.865-4.56-13.364,3.332-13.364,3.332-7.092-11.864-11.046-12.137-12.683-1.773-6.955,6.137,7.636,7.501,7.636,8.318c0,.819-15.682-.681-10.091,2.728" transform="translate(-106.9929 -59.1625)"/><path class="e" d="M321.3916,265.5113h-3.614a6.423,6.423,0,0,0,3.614,2.982,21.8833,21.8833,0,0,1,4.023,1.655c.205,0,4.091-.478,4.091-.478l.682-2.523,5.046-1.636s-4.569-2.455-6.955-2.455a3.1851,3.1851,0,0,0-3.069,1.977s-1.773-5.454-7.091-5.659c0,0-3.614,1.159,3.273,6.137" transform="translate(-106.9929 -59.1625)"/><path class="e" d="M357.0752,281.9893l3.955-1.227,3.75-3.341s9.205-.069,9.955-1.023a7.3483,7.3483,0,0,0,.955-3.018s4.841-2.778,4.841-4.824V261.26s-7.977,6.546-11.727,9.615c0,0,.818,2.114-4.092-.75s-11.523-6.41-12.205-5.864-1.91,3.614,4.159,8.114c0,0,3.205,2.455,5.932,2.659s-5.795,1.091-5.795,1.091-4.433,1.227-2.728,3.205,5.864-1.023,5.864-1.023-5.386,3.341-2.864,3.682" transform="translate(-106.9929 -59.1625)"/><path class="e" d="M388.2139,295.5587l1.545-1.455h2.637l-9.182-9.455s-2.546-3,2.545-2.273,11.728,5.546,13.819,8.728c0,0,1.819-2.023,10.274-2.193s8.182,2.466,6.455,2.83-9.183,2-9.183,2-2.181,0-1.363,1.09,2.363,3.728-1.092,3.546-10.909.91-16.455-2.818" transform="translate(-106.9929 -59.1625)"/><path class="e" d="M434.0576,298.2179a4.72,4.72,0,0,0-4.092-2.182c-2.726.136-4.091,2.864-4.091,2.864s.273,4.227,7.501,3.546c0,0,2.182,3,13.5,3,0,0-3.272-2.733,0-4.708,0,0,1.91-4.02-.681-4.02,0,0,9.273-12.546,6.818-12.819s-11.046,2.046-15,8.182Z" transform="translate(-106.9929 -59.1625)"/><path class="e" d="M495.6973,324.1285s4.637-1.5,4.364-4.091,3.819-2.455,3.819-2.455a82.45,82.45,0,0,0,10.091,1.773,8.8056,8.8056,0,0,0,6.137-1.774s-10.773-9.272-20.456-9.272c0,0,4.909-9.819,3.274-12.955-1.637-3.137-2.319-.137-5.32-2.183s-7.227.989-7.363,4.245-3.683,10.901-3.683,10.901a4.0287,4.0287,0,0,0-6,.81c-2.864,3.546,1.228,2.864-1.364,3.682s6.819-2.591,6.819.546,6.273,2.863,9.682,10.773" transform="translate(-106.9929 -59.1625)"/><path class="e" d="M495.0926,428.9058v-8.32l-2.283-2.284v2.61h-1.958v-2.937h-5.221v-7.341h-2.61v3.916h-10.768v-6.853h-3.099v3.59H466.38a3.9916,3.9916,0,0,0-4.894.163h-3.1v-2.61l-1.306-2.121-1.467,1.794v6.526H448.76v-16.804h-2.61v-2.447h-4.078v2.284h-2.774v20.719h-2.61s.489-29.04,0-33.445a8.2066,8.2066,0,0,0-3.916-6.199c-4.731.326-5.058,6.199-5.058,6.199v35.24l-1.468,1.305v6.852h-2.773v-57.754H414.01v57.428h-2.447v-3.1h-1.957v-55.796c-4.079-4.731-5.058-16.314-5.058-16.314,0,8.157-7.015,15.988-7.015,15.988v49.596h-2.774v-58.242a6.4876,6.4876,0,0,1-2.12-6.037l-2.121-2.773-.98-4.895-.896,5.139-1.224,1.224c.163,7.994-2.774,7.668-2.774,7.668v58.243h-1.957v-15.825h-3.916V353.37s-1.957.163-2.774-4.568a4.5771,4.5771,0,0,0-3.507-3.917v-3.099h-1.346v3.096a4.1854,4.1854,0,0,0-3.141,3.43c-1.304,5.221-3.262,5.384-3.262,5.384v70.643h-4.406v-20.231h-2.707V368.38h-2.941v-37.176H351.9v-31.596h-1.842v-12.802l-2.447,2.285v33.281h-1.632v39.971h-3.263v33.934h-3.099v14.846h-2.448v5.711h-2.284v-61.18l-1.468-3.589v-6.363l-1.631,1.305v4.732h-3.264l-6.689,3.263v11.094h-4.404V425.97h-3.753v-62.648l-4.405-4.894-3.425,4.404v66.563h-1.632v-4.73h-1.795v-48.618l-10.441-9.299v-3.916h-1.631v14.683h1.631v6.037l-1.795,1.631v38.013l1.795,1.632v6.036h-6.362v-5.058l2.773-3.262v-31.161h-1.958V385.51h-1.468v-1.795h3.426v-14.194h-1.958v4.406l-10.604,8.483v26.43l-8.647.326-2.284,1.141v20.557h-5.547l.979-4.405c.979-4.405,0-9.462,0-13.215s-4.405-12.072-4.895-13.704,3.264-3.426,3.264-3.426h-4.844c-.526-1.395-2.695-6.506-7.066-9.351v-1.417l-1.958-9.299v20.556h-1.958v31.814c-1.142,0-9.299-9.299-10.767-10.768s-3.1-2.61-4.568-2.61-4.405,4.568-10.931,7.831a31.26,31.26,0,0,0-10.604,9.299v1.469h291.376V431.19Zm-248.306-41.081a24.5479,24.5479,0,0,1,6.326,8.289h-6.326Z" transform="translate(-106.9929 -59.1625)"/></g></svg>