<svg xmlns="http://www.w3.org/2000/svg" viewBox="0 0 495.01 589.67"><defs><style>.cls-1{fill:#fdc935;}.cls-2{fill:#fcc934;}.cls-3{fill:#fff;}.cls-4{fill:#a19687;}</style></defs><title>Asset 1</title><g id="Layer_2" data-name="Layer 2"><g id="Layer_1-2" data-name="Layer 1"><polygon class="cls-1" points="70.22 116.92 79.11 134.93 99 137.82 84.61 151.84 88.01 171.65 70.22 162.3 52.44 171.65 55.84 151.84 41.45 137.82 61.33 134.93 70.22 116.92"/><polygon class="cls-1" points="424.79 116.92 433.68 134.93 453.56 137.82 439.18 151.84 442.57 171.65 424.79 162.3 407.01 171.65 410.4 151.84 396.02 137.82 415.9 134.93 424.79 116.92"/><path class="cls-2" d="M247.51,589.67l-3.46-1.7C182,557.36,130.55,511.63,91.19,452c-31.36-47.49-55.14-103.8-70.66-167.37C-5.84,176.71.61,86.46.9,82.67l.54-7.13,7.15-.09c62.85-.84,123.23-20.54,162.82-36.91,43.12-17.84,71.64-35.73,71.92-35.9L247.51,0l4.17,2.64c.28.17,28.8,18.06,71.92,35.9,39.59,16.37,100,36.07,162.82,36.91l7.15.09.54,7.13c.29,3.79,6.75,94-19.62,202C459,348.24,435.18,404.55,403.82,452,364.47,511.63,313,557.36,251,588ZM16.13,90.9c-.95,23.37-2,101.78,19.69,190.48C51,343.13,74,397.71,104.38,443.63c37.05,56,85.19,99.27,143.13,128.59,57.93-29.32,106.07-72.56,143.13-128.59,30.36-45.92,53.43-100.5,68.55-162.25,21.73-88.7,20.64-167.11,19.7-190.48-62.76-2.21-122.18-21.72-161.58-38a562.92,562.92,0,0,1-69.8-34.46A563.32,563.32,0,0,1,177.7,52.86c-39.4,16.32-98.81,35.83-161.57,38"/><path class="cls-3" d="M189.37,102.08h25.38v84.41H198.32v-57.1c0-1.64,0-3.94.05-6.9s.06-5.24.06-6.84l-16,70.84H165.29l-15.88-70.84q0,2.4.06,6.84t.05,6.9v57.1H133.09V102.08h25.67l15.36,66.37Z"/><polygon class="cls-3" points="231.07 102.08 248.71 102.08 248.71 171.31 290.86 171.31 290.86 186.49 231.07 186.49 231.07 102.08"/><polygon class="cls-3" points="296.75 171.6 339.9 117.02 297.84 117.02 297.84 102.08 361.81 102.08 361.81 116.22 318.11 171.6 361.92 171.6 361.92 186.49 296.75 186.49 296.75 171.6"/><path class="cls-3" d="M110.14,418a8.58,8.58,0,0,0,1.61,4.32q2.19,2.61,7.52,2.61a16.11,16.11,0,0,0,5.17-.69q3.77-1.32,3.77-4.9a3.58,3.58,0,0,0-1.85-3.23,20,20,0,0,0-5.86-2l-4.56-1q-6.75-1.49-9.26-3.24-4.26-2.91-4.27-9.13a12.11,12.11,0,0,1,4.18-9.42q4.17-3.75,12.26-3.75a18.79,18.79,0,0,1,11.52,3.54c3.18,2.35,4.85,5.78,5,10.26h-8.48a6,6,0,0,0-3.4-5.41,11.62,11.62,0,0,0-5.26-1.06,10,10,0,0,0-5.57,1.37,4.36,4.36,0,0,0-2.09,3.84,3.62,3.62,0,0,0,2.06,3.38,25.38,25.38,0,0,0,5.61,1.75l7.4,1.74a18.89,18.89,0,0,1,7.3,3.07q3.78,3,3.78,8.62a12.12,12.12,0,0,1-4.48,9.6q-4.47,3.82-12.63,3.82c-5.56,0-9.92-1.25-13.11-3.76A12.46,12.46,0,0,1,101.73,418Z"/><polygon class="cls-3" points="174.11 396.33 151.78 396.33 151.78 405.3 172.28 405.3 172.28 412.63 151.78 412.63 151.78 423.48 175.14 423.48 175.14 431.06 143.16 431.06 143.16 388.86 174.11 388.86 174.11 396.33"/><path class="cls-3" d="M186,393.27a17.4,17.4,0,0,1,13-5.21q10.53,0,15.41,7a15.32,15.32,0,0,1,2.89,7.87H208.5a12,12,0,0,0-2.16-4.58q-2.35-2.74-7-2.75a8.59,8.59,0,0,0-7.43,3.88q-2.71,3.88-2.72,11t2.87,10.64a9,9,0,0,0,7.3,3.53,8.25,8.25,0,0,0,6.91-3,13.3,13.3,0,0,0,2.19-4.9h8.76a19.05,19.05,0,0,1-5.79,11.23,16.88,16.88,0,0,1-11.94,4.32q-9,0-14.16-5.84t-5.16-16.09q0-11.06,5.86-17"/><path class="cls-3" d="M224.36,388.86h9v25.92a14.71,14.71,0,0,0,1,6.35q1.6,3.56,7,3.55t6.93-3.55a14.56,14.56,0,0,0,1-6.35V388.86h9V414.8q0,6.74-2.08,10.48-3.88,6.87-14.84,6.87t-14.86-6.87q-2.08-3.75-2.09-10.48Z"/><path class="cls-3" d="M293.76,390a10.45,10.45,0,0,1,3.95,2.95,13.16,13.16,0,0,1,2.12,3.55,11.88,11.88,0,0,1,.78,4.44,12.68,12.68,0,0,1-1.52,5.91,8.46,8.46,0,0,1-5,4.11,7.86,7.86,0,0,1,4.14,3.33,13.92,13.92,0,0,1,1.22,6.6v2.84a21,21,0,0,0,.23,3.92A3.51,3.51,0,0,0,301.3,430v1.06h-9.74c-.26-.94-.46-1.69-.57-2.27a20.68,20.68,0,0,1-.37-3.63l-.06-3.93c0-2.69-.5-4.48-1.4-5.38s-2.56-1.34-5-1.34h-8.61v16.55h-8.62V388.86H287.1a18.45,18.45,0,0,1,6.66,1.09m-18.23,6.24v11.34H285a10.06,10.06,0,0,0,4.24-.69q2.5-1.2,2.5-4.75c0-2.56-.8-4.28-2.42-5.15a8.66,8.66,0,0,0-4.08-.75Z"/><rect class="cls-3" x="308.34" y="388.86" width="8.76" height="42.21"/><polygon class="cls-3" points="356.01 388.86 356.01 396.33 343.39 396.33 343.39 431.06 334.51 431.06 334.51 396.33 321.83 396.33 321.83 388.86 356.01 388.86"/><polygon class="cls-3" points="385.25 388.86 395.24 388.86 381.13 415.24 381.13 431.06 372.31 431.06 372.31 415.24 357.7 388.86 368.1 388.86 376.86 407.24 385.25 388.86"/><path class="cls-3" d="M132.74,457.22a6.81,6.81,0,0,0,.59,2.95,5.31,5.31,0,0,0,1.64,2,7,7,0,0,0,2.42,1.14,11.6,11.6,0,0,0,3,.36,9.67,9.67,0,0,0,2.94-.4,6,6,0,0,0,2-1,3.76,3.76,0,0,0,1.09-1.45,4.44,4.44,0,0,0,.34-1.66,3.6,3.6,0,0,0-.78-2.55,4.5,4.5,0,0,0-1.7-1.15,36.8,36.8,0,0,0-3.72-1.12q-2.13-.53-5.23-1.36a11.31,11.31,0,0,1-3.22-1.33,7.75,7.75,0,0,1-2-1.82,6.56,6.56,0,0,1-1.07-2.15,8.52,8.52,0,0,1-.31-2.31,7.83,7.83,0,0,1,.94-3.93,8.55,8.55,0,0,1,2.5-2.75A11.06,11.06,0,0,1,135.6,437a16,16,0,0,1,8.43.09,10.78,10.78,0,0,1,3.65,1.82,8.72,8.72,0,0,1,3.43,7.15h-5.25a5.07,5.07,0,0,0-2-4.1,7.83,7.83,0,0,0-4.5-1.2,10.44,10.44,0,0,0-1.89.19,6.24,6.24,0,0,0-1.76.63,4,4,0,0,0-1.33,1.2,3.24,3.24,0,0,0-.52,1.89,3.2,3.2,0,0,0,1,2.5,6.41,6.41,0,0,0,2.58,1.37l1.33.35,2.58.7,2.79.73,2,.53a8.86,8.86,0,0,1,2.56,1.26A7.94,7.94,0,0,1,150.5,454a7.54,7.54,0,0,1,1.09,2.2,8.05,8.05,0,0,1,.36,2.36,8.42,8.42,0,0,1-1,4.3,8.76,8.76,0,0,1-2.71,2.93,12,12,0,0,1-3.82,1.66,18.33,18.33,0,0,1-4.37.52,18.08,18.08,0,0,1-4.84-.63,11.29,11.29,0,0,1-4-1.93,9.44,9.44,0,0,1-2.69-3.34,11.22,11.22,0,0,1-1-4.82Z"/><polygon class="cls-3" points="161.95 437.22 183.55 437.22 183.55 441.76 167.21 441.76 167.21 449.62 182.34 449.62 182.34 453.91 167.21 453.91 167.21 462.69 183.85 462.69 183.85 467.23 161.95 467.23 161.95 437.22"/><path class="cls-3" d="M193.85,437.22h14.33c3.31,0,5.79.72,7.44,2.14a7.48,7.48,0,0,1,2.48,6,8.71,8.71,0,0,1-.63,3.55,7.68,7.68,0,0,1-1.47,2.27,5.68,5.68,0,0,1-1.66,1.24c-.55.26-1,.42-1.2.51V453a5.67,5.67,0,0,1,1.45.42,4.36,4.36,0,0,1,1.45,1.07,5.76,5.76,0,0,1,1.11,1.91,8.38,8.38,0,0,1,.44,2.95,27.18,27.18,0,0,0,.4,4.81,6.41,6.41,0,0,0,1.24,3.09H213.6a5,5,0,0,1-.69-2.15c-.07-.78-.11-1.54-.11-2.26a21.55,21.55,0,0,0-.25-3.56,6.38,6.38,0,0,0-.92-2.48,4,4,0,0,0-1.83-1.45,8.27,8.27,0,0,0-3-.46H199.1v12.36h-5.25Zm5.25,13.66h8.62a5.45,5.45,0,0,0,3.82-1.2,4.63,4.63,0,0,0,1.3-3.59,5.55,5.55,0,0,0-.42-2.33,3.37,3.37,0,0,0-1.15-1.41,4.16,4.16,0,0,0-1.68-.67,10.44,10.44,0,0,0-2-.17H199.1Z"/><polygon class="cls-3" points="224.7 437.22 230.16 437.22 237.68 460.96 237.77 460.96 245.46 437.22 250.79 437.22 240.54 467.23 234.7 467.23 224.7 437.22"/><rect class="cls-3" x="259.2" y="437.22" width="5.25" height="30.01"/><path class="cls-3" d="M296.56,446.76a10.6,10.6,0,0,0-.93-2.4,6.73,6.73,0,0,0-1.51-1.89,7,7,0,0,0-2.16-1.24,8.72,8.72,0,0,0-2.88-.44,8.34,8.34,0,0,0-4.14,1,8.19,8.19,0,0,0-2.84,2.58,11.44,11.44,0,0,0-1.61,3.68,16.95,16.95,0,0,0,0,8.41,11.29,11.29,0,0,0,1.61,3.67,8.22,8.22,0,0,0,2.84,2.59,8.45,8.45,0,0,0,4.14,1,7.57,7.57,0,0,0,3.11-.61,6.94,6.94,0,0,0,2.31-1.69,7.77,7.77,0,0,0,1.51-2.5,11.6,11.6,0,0,0,.72-3.06h5.12a14.09,14.09,0,0,1-1.15,4.91,12.08,12.08,0,0,1-2.67,3.85,11.81,11.81,0,0,1-3.95,2.5,13.64,13.64,0,0,1-5,.88,14.1,14.1,0,0,1-6-1.24,13.13,13.13,0,0,1-4.52-3.38,15.28,15.28,0,0,1-2.84-5,19.32,19.32,0,0,1,0-12.15,15.28,15.28,0,0,1,2.84-5,13.44,13.44,0,0,1,4.52-3.4,14,14,0,0,1,6-1.26,16,16,0,0,1,4.75.69,12.2,12.2,0,0,1,3.93,2,10.49,10.49,0,0,1,2.75,3.21,11.25,11.25,0,0,1,1.3,4.33Z"/><polygon class="cls-3" points="312.07 437.22 333.67 437.22 333.67 441.76 317.32 441.76 317.32 449.62 332.45 449.62 332.45 453.91 317.32 453.91 317.32 462.69 333.96 462.69 333.96 467.23 312.07 467.23 312.07 437.22"/><path class="cls-3" d="M347.41,457.22a6.66,6.66,0,0,0,.59,2.95,5.31,5.31,0,0,0,1.64,2,7,7,0,0,0,2.41,1.14,11.62,11.62,0,0,0,3,.36,9.76,9.76,0,0,0,2.94-.4,6,6,0,0,0,2-1,3.66,3.66,0,0,0,1.09-1.45,4.25,4.25,0,0,0,.34-1.66,3.6,3.6,0,0,0-.78-2.55,4.36,4.36,0,0,0-1.7-1.15,35.29,35.29,0,0,0-3.72-1.12c-1.41-.35-3.16-.8-5.23-1.36a11.12,11.12,0,0,1-3.21-1.33,7.44,7.44,0,0,1-2-1.82,6.37,6.37,0,0,1-1.07-2.15,8.53,8.53,0,0,1-.32-2.31,7.83,7.83,0,0,1,.95-3.93,8.44,8.44,0,0,1,2.5-2.75,10.87,10.87,0,0,1,3.53-1.62,16,16,0,0,1,8.42.09,10.83,10.83,0,0,1,3.66,1.82,9.1,9.1,0,0,1,2.5,3,8.83,8.83,0,0,1,.92,4.14h-5.25a5.09,5.09,0,0,0-2-4.1,7.85,7.85,0,0,0-4.5-1.2,10.27,10.27,0,0,0-1.89.19,6.3,6.3,0,0,0-1.77.63,4,4,0,0,0-1.32,1.2,3.24,3.24,0,0,0-.53,1.89,3.2,3.2,0,0,0,1,2.5,6.45,6.45,0,0,0,2.59,1.37l1.32.35,2.58.7,2.8.73,1.95.53a8.93,8.93,0,0,1,2.57,1.26,8.36,8.36,0,0,1,1.83,1.83,7.79,7.79,0,0,1,1.09,2.2,8.38,8.38,0,0,1,.35,2.36,8.52,8.52,0,0,1-1,4.3,8.79,8.79,0,0,1-2.72,2.93,11.88,11.88,0,0,1-3.82,1.66,18.33,18.33,0,0,1-4.37.52,18,18,0,0,1-4.83-.63,11.21,11.21,0,0,1-4-1.93,9.33,9.33,0,0,1-2.69-3.34,10.94,10.94,0,0,1-1-4.82Z"/><polygon class="cls-4" points="151.21 351.14 158.31 351.14 158.31 335.48 162.23 335.48 162.23 331.32 172.5 331.32 172.5 349.43 189.15 349.43 189.15 358.24 202.36 358.24 202.36 367.3 220.96 367.3 220.96 336.95 226.34 335.48 230.99 335.48 230.99 346.25 252.28 352.86 252.28 338.91 261.34 338.91 261.34 322.51 274.06 322.51 274.06 318.35 275.96 320.56 275.96 322.45 283.12 322.45 283.12 344.62 295.92 344.62 304.08 344.62 304.08 342.01 307.83 342.01 314.36 342.01 314.36 333.36 318.11 333.36 318.11 330.43 323.01 330.43 323.01 362.89 340.3 362.89 340.3 349.35 350.09 349.35 350.09 356.86 350.09 370.23 319.58 373.01 143.55 373.01 151.21 351.14"/><path class="cls-2" d="M135.05,273.83l9.41-4.5s-.27,2.59,1.64,2.25,4-2.66,10.77-3.07c0,0,1.5-.57.82-3.13a9.52,9.52,0,0,0,10-6.82l.54-5.32s-5.66,2.71-16.57,10.29c0,0-13.29-7.43-19.84-13.56,0,0-.27,10.36,13.23,16.22a23.63,23.63,0,0,1-12.28,1.37"/><path class="cls-2" d="M96.41,259.42s2.28-1.27,5.09,1.09c0,0,2.73-4,11.37-4.73h1.91s1-3.45-4.18-4.91c0,0,4.91-5.72,6.54-5.81,0,0-3.45-2-9,0s-7.18,6-7.18,6S88.78,246.33,82,250c0,0-1.82,4.18,14.54,5.54,0,0,1.91-.36-.09,3.91"/><path class="cls-2" d="M140.33,247.15s3.54-.09,4.81-2.09c0,0,5.37,1.45,9,0a25.29,25.29,0,0,0,6.37-3.82s-4-.18-4.18-1.91-4.37-3.64-4.37-3.64-3.82-5.82-4.18-8.36-2.09-4.18-3.27-4-2.55,3-2.18,9S145.6,241,145.6,241s-5.27-.09-7.64,1.37,0,5.24,2.37,4.82"/><path class="cls-2" d="M187,231.69s5.05-.66,7.23,3.56c0,0,9.27-1,13.09,2l1.64-1.09h1.91l4.63,1.09s1.37,2.73,2.87,1.91c0,0,.13-7-3.69-7.54,0,0,16.37-2.41,18-3.78s-2.6-5.71-11.87-4.56-13.36,3.34-13.36,3.34-7.1-11.87-11.05-12.14-12.68-1.77-6.95,6.14,7.63,7.5,7.63,8.31-15.68-.68-10.09,2.73"/><path class="cls-2" d="M214.4,206.35h-3.62a6.43,6.43,0,0,0,3.62,3,21.49,21.49,0,0,1,4,1.66c.21,0,4.09-.48,4.09-.48l.68-2.53,5.05-1.63s-4.57-2.46-7-2.46a3.18,3.18,0,0,0-3.07,2s-1.78-5.45-7.09-5.66c0,0-3.62,1.16,3.27,6.14"/><path class="cls-2" d="M250.08,222.83l4-1.23,3.75-3.34s9.2-.07,9.95-1a7.41,7.41,0,0,0,1-3s4.84-2.78,4.84-4.83V202.1l-11.73,9.61s.82,2.12-4.09-.75-11.52-6.41-12.21-5.86-1.91,3.61,4.16,8.11c0,0,3.21,2.46,5.94,2.66s-5.8,1.09-5.8,1.09-4.43,1.23-2.73,3.21,5.87-1,5.87-1-5.39,3.35-2.87,3.69"/><path class="cls-2" d="M281.22,236.4l1.55-1.46h2.63l-9.18-9.45s-2.55-3,2.55-2.28,11.72,5.55,13.82,8.73c0,0,1.81-2,10.27-2.19s8.18,2.46,6.45,2.83-9.18,2-9.18,2-2.18,0-1.36,1.09,2.36,3.73-1.09,3.54-10.91.91-16.46-2.81"/><path class="cls-2" d="M327.06,239.06a4.72,4.72,0,0,0-4.09-2.19c-2.72.14-4.09,2.87-4.09,2.87s.27,4.22,7.5,3.54c0,0,2.18,3,13.5,3,0,0-3.27-2.73,0-4.7,0,0,1.91-4-.68-4,0,0,9.27-12.55,6.82-12.82s-11,2-15,8.18Z"/><path class="cls-2" d="M388.7,265s4.64-1.5,4.37-4.09,3.82-2.46,3.82-2.46A81.94,81.94,0,0,0,407,260.19a8.78,8.78,0,0,0,6.14-1.77s-10.78-9.27-20.46-9.27c0,0,4.91-9.82,3.27-13s-2.32-.14-5.32-2.18-7.22,1-7.36,4.24-3.68,10.9-3.68,10.9a4,4,0,0,0-6,.81c-2.87,3.55,1.23,2.87-1.37,3.69s6.82-2.59,6.82.54,6.28,2.87,9.68,10.78"/><path class="cls-2" d="M388.1,369.74v-8.32l-2.28-2.28v2.61h-2v-2.94h-5.22v-7.34H376v3.92H365.26v-6.86h-3.1v3.59h-2.77a4,4,0,0,0-4.9.17h-3.1v-2.61l-1.3-2.12-1.47,1.79v6.53h-6.85V339.07h-2.61v-2.44h-4.08v2.28H332.3v20.72h-2.61s.49-29,0-33.45a8.2,8.2,0,0,0-3.91-6.2c-4.73.33-5.06,6.2-5.06,6.2v35.24l-1.47,1.31v6.85h-2.77V311.83H307v57.42h-2.45v-3.1h-2V310.36c-4.08-4.73-5.06-16.32-5.06-16.32,0,8.16-7,16-7,16v49.6h-2.77V301.39a6.48,6.48,0,0,1-2.12-6l-2.13-2.77-1-4.9-.89,5.14L280.42,294c.17,8-2.77,7.67-2.77,7.67V360h-2V344.13h-3.91V294.21s-2,.16-2.78-4.57a4.56,4.56,0,0,0-3.5-3.92v-3.1h-1.35v3.1a4.17,4.17,0,0,0-3.14,3.43c-1.3,5.22-3.26,5.38-3.26,5.38v70.65h-4.41V345h-2.71V309.22h-2.94V272h-2.78V240.45h-1.85V227.64l-2.44,2.29v33.28H239v40h-3.27v33.93h-3.1V352h-2.44v5.71h-2.29V296.49l-1.47-3.59v-6.36l-1.63,1.3v4.74h-3.26l-6.69,3.26v11.09h-4.4v59.88h-3.76V304.16l-4.4-4.89-3.43,4.4v66.56h-1.63V365.5h-1.79V316.88L185,307.59v-3.92h-1.63v14.68H185v6L183.19,326v38l1.79,1.64v6h-6.36v-5.06l2.78-3.26V332.22h-2v-5.87H178v-1.8h3.43V310.36h-2v4.4l-10.61,8.49v26.43l-8.64.32-2.29,1.14V371.7h-5.54l1-4.4c1-4.41,0-9.47,0-13.22s-4.4-12.07-4.89-13.7S151.7,337,151.7,337h-4.84c-.53-1.39-2.7-6.5-7.07-9.35v-1.42l-1.95-9.3v20.56h-2v31.81c-1.14,0-9.3-9.29-10.77-10.76s-3.1-2.61-4.57-2.61-4.4,4.56-10.93,7.83A31.26,31.26,0,0,0,99,373v1.47H390.38V372ZM139.79,328.66a24.55,24.55,0,0,1,6.33,8.29h-6.33Z"/></g></g></svg>